PathFileType	3	(X/Y/Z)	C:\Users\koon_\Desktop\
DataRate	CameraRate	NumFrames	NumMarkers	Units	OrigDataRate	OrigDataStartFrame	OrigNumFrames
100.0	100.0	9	27	mm	100.0	509	2034	
Frame#	Time	GM:LFHD			GM:RFHD			GM:LBHD			GM:RBHD			GM:C7			GM:T10			GM:CLAV			GM:STRN			GM:RBAK			GM:LSHO			GM:LUPA			GM:LELB			GM:LFRA			GM:LWRA			GM:LWRB			GM:LFIN			GM:RSHO			GM:RUPA			GM:RELB			GM:RFRA			GM:RWRA			GM:RWRB			GM:RFIN			GM:LASI			GM:RASI			GM:LPSI			GM:RPSI			
		X1	Y1	Z1	X2	Y2	Z2	X3	Y3	Z3	X4	Y4	Z4	X5	Y5	Z5	X6	Y6	Z6	X7	Y7	Z7	X8	Y8	Z8	X9	Y9	Z9	X10	Y10	Z10	X11	Y11	Z11	X12	Y12	Z12	X13	Y13	Z13	X14	Y14	Z14	X15	Y15	Z15	X16	Y16	Z16	X17	Y17	Z17	X18	Y18	Z18	X19	Y19	Z19	X20	Y20	Z20	X21	Y21	Z21	X22	Y22	Z22	X23	Y23	Z23	X24	Y24	Z24	X25	Y25	Z25	X26	Y26	Z26	X27	Y27	Z27	
509	5.08	56.089851	1607.2749	-65.189491	-97.215523	1604.0813	-54.831261	48.28706	1570.8734	-193.1013	-113.2719	1572.7886	-165.30025	-34.411839	1417.0226	-216.75963	-30.717941	1225.8887	-268.16504	-15.157234	1350.2385	-60.779591	-13.406042	1203.3124	-17.719496	-126.40242	1308.5009	-260.27808	146.8098	1389.0592	-157.5069	213.10948	1283.2466	-159.36107	236.68321	1076.2357	-205.52103	211.62923	962.06079	-112.73132	213.86127	892.79437	-86.654213	244.1386	867.99316	-140.86819	228.56595	806.10168	-65.428375	-209.84579	1382.8181	-110.55391	-265.72992	1147.9857	-106.12374	-297.03003	1065.7183	-150.64058	-263.27203	1008.0995	-84.993477	-251.3868	877.97876	-59.704956	-281.74408	857.41913	-108.92121	-273.49811	791.98767	-45.47084	117.80923	903.26544	-58.503738	-172.00642	906.22949	-50.617096	47.370235	947.06445	-266.66107	-117.78065	936.81146	-264.32758
510	5.09	55.997784	1606.9666	-63.407818	-97.317787	1603.6049	-53.278221	48.524033	1571.0017	-191.31422	-113.08347	1572.6694	-164.04877	-33.961002	1417.2457	-215.96385	-30.100996	1226.4119	-268.21442	-14.936025	1349.8325	-60.143456	-13.203761	1202.7018	-17.808697	-125.75578	1308.9098	-260.0842	147.22493	1389.157	-156.48572	213.44498	1283.2664	-158.71001	237.01506	1076.2227	-205.41078	211.19019	961.56335	-112.66283	213.59204	892.93286	-86.44986	243.96898	868.01526	-140.59782	228.22572	806.28839	-65.242989	-209.56023	1382.428	-110.20428	-265.65961	1147.804	-106.73236	-297.07364	1065.4078	-151.1964	-263.43405	1008.1445	-85.065742	-250.60341	878.28656	-58.89204	-281.16705	857.4259	-107.94971	-272.21057	792.70996	-43.799328	117.91695	903.29199	-60.444798	-171.65669	906.30701	-52.730251	47.573757	946.89252	-268.22873	-117.1373	936.5611	-266.09387
511	5.1	55.908985	1606.6979	-61.283836	-97.541199	1603.1179	-51.51086	48.759678	1571.1703	-189.46425	-113.20901	1572.6663	-162.94977	-33.461273	1417.5646	-214.96223	-29.419725	1227.1212	-268.22098	-14.688243	1349.3424	-59.389988	-12.976007	1201.9373	-17.829885	-125.15326	1309.4207	-259.7583	147.63112	1389.2786	-155.3103	213.76122	1283.3229	-157.90974	237.5062	1076.2993	-205.28096	211.06958	961.72058	-112.47721	213.10078	893.11072	-86.179283	243.81898	868.39478	-140.1369	227.86394	806.61475	-64.943245	-209.26381	1382.1854	-109.68616	-265.73755	1147.74	-107.41772	-297.14044	1065.1396	-151.95389	-263.69611	1008.3945	-85.147301	-249.68578	878.81445	-58.139736	-280.62524	857.66425	-107.06664	-270.84921	793.6756	-42.028305	118.07645	902.99957	-62.660297	-171.34071	906.27155	-54.710945	47.775082	946.841	-270.02667	-116.64743	936.27118	-267.9736
512	5.11	55.765465	1606.4781	-59.063183	-97.66851	1602.5581	-49.599068	48.942989	1571.4082	-187.31467	-113.21835	1572.3911	-161.3618	-33.050896	1417.954	-213.73465	-28.744829	1227.9358	-268.11987	-14.391327	1348.8765	-58.4006	-12.712542	1201.1768	-17.807447	-124.59973	1309.9988	-259.18253	148.06265	1389.4374	-153.97742	214.14899	1283.4213	-156.98033	237.96661	1076.4235	-205.10278	210.84138	961.94281	-112.20065	212.37364	893.38232	-85.888336	243.62318	868.57806	-139.58937	227.4408	807.06573	-64.498543	-208.91747	1382.0059	-108.94624	-265.98215	1147.8225	-108.09206	-297.10995	1064.999	-152.74104	-263.90878	1008.7886	-85.336098	-248.65976	879.52069	-57.407436	-280.17831	858.13245	-106.39175	-269.24896	794.88843	-40.075535	118.27512	902.46356	-64.808052	-171.25734	905.97662	-57.091663	47.856628	946.68658	-271.38791	-116.12247	936.05231	-270.01846
513	5.12	55.655949	1606.2999	-56.568863	-97.831276	1602.0426	-47.618805	49.18977	1571.6511	-184.94577	-112.986	1572.2766	-159.10806	-32.588955	1418.4325	-212.36301	-28.183643	1228.8152	-267.9068	-14.120593	1348.3749	-57.372818	-12.368507	1200.3721	-17.761057	-124.02924	1310.6669	-258.61786	148.42854	1389.6464	-152.40285	214.5154	1283.6222	-155.86606	238.50165	1076.6676	-204.8918	210.99702	962.73041	-111.83849	211.67883	893.73859	-85.60968	243.50835	868.89185	-138.96149	226.84505	807.71667	-63.951141	-208.54535	1381.9458	-107.96896	-266.26514	1148.0479	-108.70353	-297.08035	1065.0092	-153.35449	-263.95456	1009.2367	-85.434029	-247.616	880.42084	-56.776665	-279.14096	858.75427	-104.99499	-267.61929	796.32294	-38.095139	118.52767	901.57758	-67.130043	-171.14655	905.62488	-59.271942	47.929489	947.00653	-273.9498	-115.65237	935.83704	-271.94849
514	5.13	55.470978	1606.0948	-53.81842	-97.96167	1601.4902	-45.176373	49.352715	1571.9224	-182.37799	-112.98956	1572.1788	-157.10519	-32.060284	1418.9663	-210.6666	-27.683044	1229.8885	-267.70734	-13.779268	1347.8441	-56.184956	-12.085758	1199.4343	-17.668678	-123.52851	1311.4418	-257.79407	148.82603	1389.9332	-150.71198	214.85515	1283.896	-154.8055	238.99568	1077.0338	-204.58391	210.27773	962.68335	-111.5581	211.1261	894.15668	-85.117432	243.48033	869.40369	-138.32121	226.28371	808.46155	-63.176178	-208.20596	1381.9969	-106.99467	-266.5632	1148.3906	-109.17164	-297.00482	1065.0996	-154.02516	-263.87268	1009.9612	-85.566383	-246.22852	881.44476	-56.011482	-277.90573	859.44916	-103.63406	-265.77966	797.93933	-36.142235	118.81918	900.53662	-69.711014	-171.10417	905.16693	-61.522968	47.876225	947.0838	-275.62521	-115.23996	935.81116	-274.20526
515	5.14	55.339729	1605.8857	-50.907757	-98.195824	1600.9802	-42.521378	49.563236	1572.175	-179.57033	-112.97932	1571.9788	-154.80084	-31.596247	1419.5571	-208.83806	-27.298935	1230.9542	-267.38959	-13.611524	1347.3101	-54.76403	-11.315015	1198.6584	-16.796167	-123.03663	1312.2382	-256.79758	149.2198	1390.2889	-148.82722	215.22459	1284.2202	-153.44995	238.73671	1077.3066	-204.22331	209.94312	963.17828	-111.28419	210.52782	894.73267	-84.689201	243.32863	869.98163	-137.66486	225.67767	809.25262	-62.488342	-207.86761	1382.1371	-105.79967	-266.9147	1148.8241	-109.56431	-296.89679	1065.2456	-154.65686	-263.62204	1010.6344	-85.638397	-244.89474	882.53656	-55.276161	-276.72791	860.16193	-102.624	-263.88684	799.61774	-34.236687	119.09634	899.35876	-72.526932	-171.19778	904.67572	-64.181564	47.918255	947.5271	-277.96365	-114.88618	935.88879	-276.39481
516	5.15	55.187943	1605.614	-47.719563	-98.353493	1600.3948	-39.731461	49.754128	1572.429	-176.49997	-112.6945	1571.917	-152.06818	-31.212681	1420.1324	-206.79306	-27.161657	1232.1335	-267.01694	-13.316698	1346.6907	-53.365696	-11.017331	1197.7039	-16.651144	-122.57099	1313.1946	-255.71492	149.49979	1390.6589	-146.84448	215.5099	1284.6713	-152.05608	239.45296	1077.8995	-203.76871	209.86775	963.86066	-110.81318	209.9836	895.27783	-84.209618	242.84126	870.37628	-136.76512	224.94897	810.11609	-61.902748	-207.50226	1382.318	-104.33388	-267.19638	1149.3049	-109.85686	-296.7276	1065.4458	-155.24321	-263.28842	1011.3563	-85.753654	-243.3255	883.76093	-54.607677	-275.35651	860.94891	-101.51875	-261.96902	801.2851	-32.524376	119.17487	898.23883	-75.64743	-171.11813	904.26434	-66.782333	47.819683	948.10309	-280.3598	-114.57604	936.17297	-278.69485
517	5.16	55.10854	1605.2886	-44.303131	-98.453201	1599.6527	-36.733566	49.917534	1572.5925	-173.20343	-112.73488	1571.5197	-149.09467	-30.800297	1420.668	-204.58792	-26.996511	1233.2942	-266.47232	-13.04467	1346.0051	-51.591961	-10.667053	1196.6383	-16.411024	-122.17395	1314.2089	-254.44121	149.80441	1391.0712	-144.54865	215.879	1285.2367	-150.53899	239.72705	1078.4369	-203.33691	209.72481	964.64038	-110.52595	209.54005	895.85748	-83.85997	243.04797	871.44	-136.62166	224.3399	810.89862	-61.328499	-207.12245	1382.4934	-102.62602	-267.45151	1149.7804	-110.06374	-296.41898	1065.7078	-155.66089	-262.82324	1012.2062	-85.669388	-241.76418	884.86542	-54.084221	-273.77542	861.73181	-100.64935	-260.08496	802.87488	-31.117773	118.24717	897.021	-79.592834	-170.72495	903.57098	-69.789764	47.84531	948.7818	-282.36438	-114.44502	936.66113	-281.09723
